<svg xmlns="http://www.w3.org/2000/svg" xmlns:xlink="http://www.w3.org/1999/xlink" width="500" zoomAndPan="magnify" viewBox="0 0 375 374.999991" height="500" preserveAspectRatio="xMidYMid meet" version="1.0"><defs><clipPath id="1f4b80ecd3"><path d="M 134.621094 0 L 237.546875 0 L 237.546875 154.789062 L 134.621094 154.789062 Z M 134.621094 0 " clip-rule="nonzero"/></clipPath><clipPath id="61b3d2035e"><path d="M 186.082031 0 C 157.660156 0 134.621094 34.59375 134.621094 77.265625 C 134.621094 119.9375 157.660156 154.53125 186.082031 154.53125 C 214.503906 154.53125 237.546875 119.9375 237.546875 77.265625 C 237.546875 34.59375 214.503906 0 186.082031 0 Z M 186.082031 0 " clip-rule="nonzero"/></clipPath><clipPath id="c9f07f61f8"><path d="M 134.621094 0.00390625 L 237.371094 0.00390625 L 237.371094 154.5 L 134.621094 154.5 Z M 134.621094 0.00390625 " clip-rule="nonzero"/></clipPath><clipPath id="6fd3c48a75"><path d="M 186.078125 0.00390625 C 157.660156 0.00390625 134.621094 34.59375 134.621094 77.261719 C 134.621094 119.929688 157.660156 154.519531 186.078125 154.519531 C 214.496094 154.519531 237.535156 119.929688 237.535156 77.261719 C 237.535156 34.59375 214.496094 0.00390625 186.078125 0.00390625 Z M 186.078125 0.00390625 " clip-rule="nonzero"/></clipPath><clipPath id="94a9be29ca"><path d="M 136.039062 220.46875 L 238.960938 220.46875 L 238.960938 375 L 136.039062 375 Z M 136.039062 220.46875 " clip-rule="nonzero"/></clipPath><clipPath id="a4819f0902"><path d="M 187.5 220.46875 C 159.078125 220.46875 136.039062 255.0625 136.039062 297.734375 C 136.039062 340.40625 159.078125 375 187.5 375 C 215.921875 375 238.960938 340.40625 238.960938 297.734375 C 238.960938 255.0625 215.921875 220.46875 187.5 220.46875 Z M 187.5 220.46875 " clip-rule="nonzero"/></clipPath><clipPath id="f20e8ea733"><path d="M 136.039062 220.472656 L 238.789062 220.472656 L 238.789062 374.96875 L 136.039062 374.96875 Z M 136.039062 220.472656 " clip-rule="nonzero"/></clipPath><clipPath id="6ca37f67be"><path d="M 187.496094 220.472656 C 159.074219 220.472656 136.039062 255.0625 136.039062 297.730469 C 136.039062 340.398438 159.074219 374.988281 187.496094 374.988281 C 215.914062 374.988281 238.953125 340.398438 238.953125 297.730469 C 238.953125 255.0625 215.914062 220.472656 187.496094 220.472656 Z M 187.496094 220.472656 " clip-rule="nonzero"/></clipPath><clipPath id="c19034633d"><path d="M 0 136.328125 L 154.523438 136.328125 L 154.523438 239.253906 L 0 239.253906 Z M 0 136.328125 " clip-rule="nonzero"/></clipPath><clipPath id="be68822d67"><path d="M 154.523438 187.789062 C 154.523438 159.367188 119.929688 136.328125 77.257812 136.328125 C 34.582031 136.328125 -0.0078125 159.367188 -0.0078125 187.789062 C -0.0078125 216.210938 34.582031 239.253906 77.257812 239.253906 C 119.929688 239.253906 154.523438 216.210938 154.523438 187.789062 Z M 154.523438 187.789062 " clip-rule="nonzero"/></clipPath><clipPath id="4e12311f7c"><path d="M 0.0234375 136.328125 L 154.515625 136.328125 L 154.515625 239.078125 L 0.0234375 239.078125 Z M 0.0234375 136.328125 " clip-rule="nonzero"/></clipPath><clipPath id="80ded8a924"><path d="M 154.515625 187.785156 C 154.515625 159.367188 119.929688 136.328125 77.261719 136.328125 C 34.59375 136.328125 0.00390625 159.367188 0.00390625 187.785156 C 0.00390625 216.203125 34.59375 239.242188 77.261719 239.242188 C 119.929688 239.242188 154.515625 216.203125 154.515625 187.785156 Z M 154.515625 187.785156 " clip-rule="nonzero"/></clipPath><clipPath id="0cb1b73136"><path d="M 220.199219 136.328125 L 374.992188 136.328125 L 374.992188 239.253906 L 220.199219 239.253906 Z M 220.199219 136.328125 " clip-rule="nonzero"/></clipPath><clipPath id="1d91ccf275"><path d="M 374.992188 187.789062 C 374.992188 159.367188 340.398438 136.328125 297.726562 136.328125 C 255.050781 136.328125 220.460938 159.367188 220.460938 187.789062 C 220.460938 216.210938 255.050781 239.253906 297.726562 239.253906 C 340.398438 239.253906 374.992188 216.210938 374.992188 187.789062 Z M 374.992188 187.789062 " clip-rule="nonzero"/></clipPath><clipPath id="1e9a0849d3"><path d="M 220.492188 136.328125 L 374.984375 136.328125 L 374.984375 239.078125 L 220.492188 239.078125 Z M 220.492188 136.328125 " clip-rule="nonzero"/></clipPath><clipPath id="aa4ae9cc8e"><path d="M 374.984375 187.785156 C 374.984375 159.367188 340.398438 136.328125 297.730469 136.328125 C 255.0625 136.328125 220.472656 159.367188 220.472656 187.785156 C 220.472656 216.203125 255.0625 239.242188 297.730469 239.242188 C 340.398438 239.242188 374.984375 216.203125 374.984375 187.785156 Z M 374.984375 187.785156 " clip-rule="nonzero"/></clipPath><clipPath id="717442d1c7"><path d="M 39 46 L 167 46 L 167 183 L 39 183 Z M 39 46 " clip-rule="nonzero"/></clipPath><clipPath id="cc7553b766"><path d="M 192.121094 140.851562 L 113.273438 207.011719 L 13.777344 88.433594 L 92.621094 22.277344 Z M 192.121094 140.851562 " clip-rule="nonzero"/></clipPath><clipPath id="eda5e0523a"><path d="M 152.695312 173.929688 C 174.46875 155.664062 169.882812 114.351562 142.453125 81.664062 C 115.023438 48.972656 75.140625 37.285156 53.367188 55.554688 C 31.59375 73.824219 36.179688 115.132812 63.609375 147.820312 C 91.039062 180.511719 130.925781 192.199219 152.695312 173.929688 Z M 152.695312 173.929688 " clip-rule="nonzero"/></clipPath><clipPath id="7db05c134c"><path d="M 39 46 L 167 46 L 167 183 L 39 183 Z M 39 46 " clip-rule="nonzero"/></clipPath><clipPath id="f58a5b84eb"><path d="M 192.121094 140.851562 L 113.410156 206.898438 L 14.097656 88.542969 L 92.808594 22.5 Z M 192.121094 140.851562 " clip-rule="nonzero"/></clipPath><clipPath id="2c5a33445f"><path d="M 192.117188 140.847656 L 112.589844 207.578125 L 13.269531 89.214844 L 92.796875 22.484375 Z M 192.117188 140.847656 " clip-rule="nonzero"/></clipPath><clipPath id="f45baca5bd"><path d="M 152.699219 173.925781 C 174.46875 155.65625 169.882812 114.351562 142.457031 81.667969 C 115.03125 48.980469 75.148438 37.292969 53.378906 55.558594 C 31.609375 73.828125 36.195312 115.132812 63.621094 147.816406 C 91.046875 180.503906 130.929688 192.191406 152.699219 173.925781 Z M 152.699219 173.925781 " clip-rule="nonzero"/></clipPath><clipPath id="87ef31b365"><path d="M 195 46 L 323 46 L 323 183 L 195 183 Z M 195 46 " clip-rule="nonzero"/></clipPath><clipPath id="a01e4e3096"><path d="M 248.875 207.003906 L 170.03125 140.84375 L 269.527344 22.269531 L 348.375 88.429688 Z M 248.875 207.003906 " clip-rule="nonzero"/></clipPath><clipPath id="024b3a2b28"><path d="M 209.453125 173.925781 C 231.226562 192.195312 271.113281 180.503906 298.542969 147.816406 C 325.972656 115.125 330.558594 73.816406 308.785156 55.546875 C 287.011719 37.277344 247.125 48.96875 219.695312 81.65625 C 192.265625 114.34375 187.679688 155.65625 209.453125 173.925781 Z M 209.453125 173.925781 " clip-rule="nonzero"/></clipPath><clipPath id="450673e6c2"><path d="M 195 46 L 323 46 L 323 183 L 195 183 Z M 195 46 " clip-rule="nonzero"/></clipPath><clipPath id="6491d70c54"><path d="M 248.875 207.003906 L 170.164062 140.957031 L 269.476562 22.605469 L 348.1875 88.648438 Z M 248.875 207.003906 " clip-rule="nonzero"/></clipPath><clipPath id="9334b14200"><path d="M 248.878906 207 L 169.351562 140.269531 L 268.671875 21.90625 L 348.199219 88.636719 Z M 248.878906 207 " clip-rule="nonzero"/></clipPath><clipPath id="7bced4c9f7"><path d="M 209.460938 173.925781 C 231.230469 192.191406 271.113281 180.503906 298.539062 147.816406 C 325.964844 115.132812 330.550781 73.828125 308.78125 55.558594 C 287.011719 37.292969 247.128906 48.980469 219.703125 81.667969 C 192.277344 114.351562 187.691406 155.65625 209.460938 173.925781 Z M 209.460938 173.925781 " clip-rule="nonzero"/></clipPath><clipPath id="577a35397a"><path d="M 49 202 L 177 202 L 177 339 L 49 339 Z M 49 202 " clip-rule="nonzero"/></clipPath><clipPath id="2fb74863af"><path d="M 102.792969 362.546875 L 23.945312 296.386719 L 123.441406 177.808594 L 202.289062 243.96875 Z M 102.792969 362.546875 " clip-rule="nonzero"/></clipPath><clipPath id="d8f728b95e"><path d="M 63.367188 329.464844 C 85.140625 347.734375 125.027344 336.046875 152.457031 303.355469 C 179.886719 270.667969 184.472656 229.355469 162.699219 211.089844 C 140.925781 192.820312 101.039062 204.507812 73.613281 237.199219 C 46.183594 269.886719 41.597656 311.195312 63.367188 329.464844 Z M 63.367188 329.464844 " clip-rule="nonzero"/></clipPath><clipPath id="6fd4b5936e"><path d="M 49 202 L 177 202 L 177 339 L 49 339 Z M 49 202 " clip-rule="nonzero"/></clipPath><clipPath id="a59e91bf91"><path d="M 102.792969 362.546875 L 24.082031 296.5 L 123.390625 178.144531 L 202.101562 244.191406 Z M 102.792969 362.546875 " clip-rule="nonzero"/></clipPath><clipPath id="85ad813f87"><path d="M 102.792969 362.542969 L 23.269531 295.8125 L 122.585938 177.445312 L 202.113281 244.175781 Z M 102.792969 362.542969 " clip-rule="nonzero"/></clipPath><clipPath id="bbba3e8fb2"><path d="M 63.375 329.464844 C 85.144531 347.734375 125.027344 336.042969 152.453125 303.359375 C 179.878906 270.671875 184.464844 229.367188 162.695312 211.101562 C 140.925781 192.832031 101.042969 204.523438 73.617188 237.207031 C 46.191406 269.894531 41.605469 311.199219 63.375 329.464844 Z M 63.375 329.464844 " clip-rule="nonzero"/></clipPath><clipPath id="d321b3d057"><path d="M 195 202 L 323 202 L 323 339 L 195 339 Z M 195 202 " clip-rule="nonzero"/></clipPath><clipPath id="d5ca71f001"><path d="M 170.039062 244.171875 L 248.882812 178.015625 L 348.382812 296.589844 L 269.535156 362.75 Z M 170.039062 244.171875 " clip-rule="nonzero"/></clipPath><clipPath id="a2d2027369"><path d="M 209.460938 211.09375 C 187.691406 229.363281 192.273438 270.671875 219.703125 303.363281 C 247.132812 336.050781 287.019531 347.742188 308.792969 329.472656 C 330.566406 311.203125 325.980469 269.890625 298.550781 237.203125 C 271.121094 204.515625 231.234375 192.824219 209.460938 211.09375 Z M 209.460938 211.09375 " clip-rule="nonzero"/></clipPath><clipPath id="0ed39bc9bb"><path d="M 195 202 L 323 202 L 323 339 L 195 339 Z M 195 202 " clip-rule="nonzero"/></clipPath><clipPath id="909e097eba"><path d="M 170.039062 244.171875 L 248.75 178.125 L 348.0625 296.480469 L 269.351562 362.527344 Z M 170.039062 244.171875 " clip-rule="nonzero"/></clipPath><clipPath id="df353ef1b7"><path d="M 170.042969 244.175781 L 249.570312 177.445312 L 348.890625 295.8125 L 269.363281 362.542969 Z M 170.042969 244.175781 " clip-rule="nonzero"/></clipPath><clipPath id="52acd18ec1"><path d="M 209.460938 211.101562 C 187.691406 229.367188 192.277344 270.671875 219.703125 303.359375 C 247.128906 336.042969 287.011719 347.734375 308.78125 329.464844 C 330.550781 311.199219 325.964844 269.894531 298.539062 237.207031 C 271.113281 204.523438 231.230469 192.832031 209.460938 211.101562 Z M 209.460938 211.101562 " clip-rule="nonzero"/></clipPath><clipPath id="d28190dbbe"><path d="M 129.972656 130.261719 L 245.027344 130.261719 L 245.027344 245.3125 L 129.972656 245.3125 Z M 129.972656 130.261719 " clip-rule="nonzero"/></clipPath><clipPath id="8bff77a49e"><path d="M 187.5 130.261719 C 155.730469 130.261719 129.972656 156.019531 129.972656 187.789062 C 129.972656 219.558594 155.730469 245.3125 187.5 245.3125 C 219.269531 245.3125 245.027344 219.558594 245.027344 187.789062 C 245.027344 156.019531 219.269531 130.261719 187.5 130.261719 Z M 187.5 130.261719 " clip-rule="nonzero"/></clipPath><clipPath id="eae2b3fd4a"><path d="M 129.972656 130.261719 L 244.722656 130.261719 L 244.722656 245.011719 L 129.972656 245.011719 Z M 129.972656 130.261719 " clip-rule="nonzero"/></clipPath><clipPath id="2ff4122b5d"><path d="M 187.496094 130.261719 C 155.726562 130.261719 129.972656 156.015625 129.972656 187.785156 C 129.972656 219.550781 155.726562 245.304688 187.496094 245.304688 C 219.265625 245.304688 245.015625 219.550781 245.015625 187.785156 C 245.015625 156.015625 219.265625 130.261719 187.496094 130.261719 Z M 187.496094 130.261719 " clip-rule="nonzero"/></clipPath></defs><g clip-path="url(#1f4b80ecd3)"><g clip-path="url(#61b3d2035e)"><path fill="#feb573" d="M 134.621094 0 L 237.546875 0 L 237.546875 154.386719 L 134.621094 154.386719 Z M 134.621094 0 " fill-opacity="1" fill-rule="nonzero"/></g></g><g clip-path="url(#c9f07f61f8)"><g clip-path="url(#6fd3c48a75)"><path stroke-linecap="butt" transform="matrix(0.75, 0, 0, 0.75, 134.621276, 0.00450369)" fill="none" stroke-linejoin="miter" d="M 68.609141 -0.000796583 C 30.718511 -0.000796583 -0.000242547 46.119001 -0.000242547 103.009633 C -0.000242547 159.900266 30.718511 206.020063 68.609141 206.020063 C 106.499771 206.020063 137.218525 159.900266 137.218525 103.009633 C 137.218525 46.119001 106.499771 -0.000796583 68.609141 -0.000796583 Z M 68.609141 -0.000796583 " stroke="#000000" stroke-width="20" stroke-opacity="1" stroke-miterlimit="4"/></g></g><g clip-path="url(#94a9be29ca)"><g clip-path="url(#a4819f0902)"><path fill="#feb573" d="M 136.039062 220.46875 L 238.960938 220.46875 L 238.960938 374.855469 L 136.039062 374.855469 Z M 136.039062 220.46875 " fill-opacity="1" fill-rule="nonzero"/></g></g><g clip-path="url(#f20e8ea733)"><g clip-path="url(#6ca37f67be)"><path stroke-linecap="butt" transform="matrix(0.75, 0, 0, 0.75, 136.037441, 220.473473)" fill="none" stroke-linejoin="miter" d="M 68.611546 -0.00108863 C 30.715707 -0.00108863 0.00216178 46.118709 0.00216178 103.009341 C 0.00216178 159.899974 30.715707 206.019771 68.611546 206.019771 C 106.502176 206.019771 137.22093 159.899974 137.22093 103.009341 C 137.22093 46.118709 106.502176 -0.00108863 68.611546 -0.00108863 Z M 68.611546 -0.00108863 " stroke="#000000" stroke-width="20" stroke-opacity="1" stroke-miterlimit="4"/></g></g><g clip-path="url(#c19034633d)"><g clip-path="url(#be68822d67)"><path fill="#feb573" d="M 154.523438 136.328125 L 154.523438 239.253906 L 0.132812 239.253906 L 0.132812 136.328125 Z M 154.523438 136.328125 " fill-opacity="1" fill-rule="nonzero"/></g></g><g clip-path="url(#4e12311f7c)"><g clip-path="url(#80ded8a924)"><path stroke-linecap="butt" transform="matrix(0, 0.75, -0.75, 0, 154.517193, 136.327373)" fill="none" stroke-linejoin="miter" d="M 68.610386 0.00209034 C 30.719756 0.00209034 0.00100207 46.11668 0.00100207 103.007312 C 0.00100207 159.897944 30.719756 206.017742 68.610386 206.017742 C 106.501016 206.017742 137.21977 159.897944 137.21977 103.007312 C 137.21977 46.11668 106.501016 0.00209034 68.610386 0.00209034 Z M 68.610386 0.00209034 " stroke="#000000" stroke-width="20" stroke-opacity="1" stroke-miterlimit="4"/></g></g><g clip-path="url(#0cb1b73136)"><g clip-path="url(#1d91ccf275)"><path fill="#feb573" d="M 374.992188 136.328125 L 374.992188 239.253906 L 220.601562 239.253906 L 220.601562 136.328125 Z M 374.992188 136.328125 " fill-opacity="1" fill-rule="nonzero"/></g></g><g clip-path="url(#1e9a0849d3)"><g clip-path="url(#aa4ae9cc8e)"><path stroke-linecap="butt" transform="matrix(0, 0.75, -0.75, 0, 374.986151, 136.327373)" fill="none" stroke-linejoin="miter" d="M 68.610386 0.0023681 C 30.719756 0.0023681 0.00100207 46.116957 0.00100207 103.00759 C 0.00100207 159.898222 30.719756 206.01802 68.610386 206.01802 C 106.501016 206.01802 137.21977 159.898222 137.21977 103.00759 C 137.21977 46.116957 106.501016 0.0023681 68.610386 0.0023681 Z M 68.610386 0.0023681 " stroke="#000000" stroke-width="20" stroke-opacity="1" stroke-miterlimit="4"/></g></g><g clip-path="url(#717442d1c7)"><g clip-path="url(#cc7553b766)"><g clip-path="url(#eda5e0523a)"><path fill="#feb573" d="M 192.121094 140.851562 L 113.273438 207.011719 L 14.035156 88.742188 L 92.882812 22.585938 Z M 192.121094 140.851562 " fill-opacity="1" fill-rule="nonzero"/></g></g></g><g clip-path="url(#7db05c134c)"><g clip-path="url(#f58a5b84eb)"><g clip-path="url(#2c5a33445f)"><g clip-path="url(#f45baca5bd)"><path stroke-linecap="butt" transform="matrix(-0.574533, 0.482091, -0.482091, -0.574533, 192.116872, 140.848512)" fill="none" stroke-linejoin="miter" d="M 68.609779 -0.00197329 C 30.716636 0.000811341 0.000489645 46.119494 0.00150168 103.007546 C -0.000834135 159.899588 30.718403 206.018685 68.608199 206.01989 C 106.501343 206.017106 137.217489 159.898423 137.216477 103.010371 C 137.218813 46.118329 106.499575 -0.000768105 68.609779 -0.00197329 Z M 68.609779 -0.00197329 " stroke="#000000" stroke-width="20" stroke-opacity="1" stroke-miterlimit="4"/></g></g></g></g><g clip-path="url(#87ef31b365)"><g clip-path="url(#a01e4e3096)"><g clip-path="url(#024b3a2b28)"><path fill="#feb573" d="M 248.875 207.003906 L 170.03125 140.84375 L 269.269531 22.578125 L 348.113281 88.734375 Z M 248.875 207.003906 " fill-opacity="1" fill-rule="nonzero"/></g></g></g><g clip-path="url(#450673e6c2)"><g clip-path="url(#6491d70c54)"><g clip-path="url(#9334b14200)"><g clip-path="url(#7bced4c9f7)"><path stroke-linecap="butt" transform="matrix(-0.574533, -0.482091, 0.482091, -0.574533, 248.879081, 207.000397)" fill="none" stroke-linejoin="miter" d="M 68.608006 -0.00115705 C 30.71821 0.0000481391 -0.00102721 46.119145 0.00130861 103.011187 C 0.000296574 159.89924 30.716443 206.017922 68.609586 206.020706 C 106.499382 206.019501 137.218619 159.900404 137.216284 103.008362 C 137.217296 46.12031 106.50115 0.00162758 68.608006 -0.00115705 Z M 68.608006 -0.00115705 " stroke="#000000" stroke-width="20" stroke-opacity="1" stroke-miterlimit="4"/></g></g></g></g><g clip-path="url(#577a35397a)"><g clip-path="url(#2fb74863af)"><g clip-path="url(#d8f728b95e)"><path fill="#feb573" d="M 102.792969 362.546875 L 23.945312 296.386719 L 123.183594 178.117188 L 202.03125 244.277344 Z M 102.792969 362.546875 " fill-opacity="1" fill-rule="nonzero"/></g></g></g><g clip-path="url(#6fd4b5936e)"><g clip-path="url(#a59e91bf91)"><g clip-path="url(#85ad813f87)"><g clip-path="url(#bbba3e8fb2)"><path stroke-linecap="butt" transform="matrix(-0.574533, -0.482091, 0.482091, -0.574533, 102.794309, 362.541715)" fill="none" stroke-linejoin="miter" d="M 68.61113 0.000148418 C 30.717986 -0.00263621 0.0020968 46.120451 0.00108476 103.008503 C 0.00342058 159.900545 30.719567 206.019227 68.609362 206.018022 C 106.502506 206.020807 137.218396 159.89772 137.219408 103.009668 C 137.217072 46.117626 106.500926 -0.00105677 68.61113 0.000148418 Z M 68.61113 0.000148418 " stroke="#000000" stroke-width="20" stroke-opacity="1" stroke-miterlimit="4"/></g></g></g></g><g clip-path="url(#d321b3d057)"><g clip-path="url(#d5ca71f001)"><g clip-path="url(#a2d2027369)"><path fill="#feb573" d="M 170.039062 244.171875 L 248.882812 178.015625 L 348.125 296.28125 L 269.277344 362.441406 Z M 170.039062 244.171875 " fill-opacity="1" fill-rule="nonzero"/></g></g></g><g clip-path="url(#0ed39bc9bb)"><g clip-path="url(#909e097eba)"><g clip-path="url(#df353ef1b7)"><g clip-path="url(#52acd18ec1)"><path stroke-linecap="butt" transform="matrix(0.574533, -0.482091, 0.482091, 0.574533, 170.042353, 244.17681)" fill="none" stroke-linejoin="miter" d="M 68.608998 0.000890423 C 30.719202 -0.000314762 0.00305645 46.118368 0.000720635 103.01041 C 0.00173267 159.898462 30.717622 206.021549 68.610766 206.018764 C 106.500562 206.019969 137.216708 159.901287 137.219044 103.009245 C 137.218032 46.121193 106.502142 -0.00189421 68.608998 0.000890423 Z M 68.608998 0.000890423 " stroke="#000000" stroke-width="20" stroke-opacity="1" stroke-miterlimit="4"/></g></g></g></g><g clip-path="url(#d28190dbbe)"><g clip-path="url(#8bff77a49e)"><path fill="#ffff5f" d="M 129.972656 130.261719 L 245.027344 130.261719 L 245.027344 245.3125 L 129.972656 245.3125 Z M 129.972656 130.261719 " fill-opacity="1" fill-rule="nonzero"/></g></g><g clip-path="url(#eae2b3fd4a)"><g clip-path="url(#2ff4122b5d)"><path stroke-linecap="butt" transform="matrix(0.75, 0, 0, 0.75, 129.974557, 130.262744)" fill="none" stroke-linejoin="miter" d="M 76.695388 -0.00136733 C 34.33601 -0.00136733 -0.00253402 34.337177 -0.00253402 76.696554 C -0.00253402 119.050724 34.33601 153.389268 76.695388 153.389268 C 119.054765 153.389268 153.388101 119.050724 153.388101 76.696554 C 153.388101 34.337177 119.054765 -0.00136733 76.695388 -0.00136733 Z M 76.695388 -0.00136733 " stroke="#000000" stroke-width="20" stroke-opacity="1" stroke-miterlimit="4"/></g></g></svg>