<svg xmlns="http://www.w3.org/2000/svg" xmlns:xlink="http://www.w3.org/1999/xlink" width="500" zoomAndPan="magnify" viewBox="0 0 375 374.999991" height="500" preserveAspectRatio="xMidYMid meet" version="1.0"><defs><clipPath id="5e7463b2db"><path d="M 134.621094 0 L 237.546875 0 L 237.546875 154.789062 L 134.621094 154.789062 Z M 134.621094 0 " clip-rule="nonzero"/></clipPath><clipPath id="5e6224562a"><path d="M 186.082031 0 C 157.660156 0 134.621094 34.59375 134.621094 77.265625 C 134.621094 119.9375 157.660156 154.53125 186.082031 154.53125 C 214.503906 154.53125 237.546875 119.9375 237.546875 77.265625 C 237.546875 34.59375 214.503906 0 186.082031 0 Z M 186.082031 0 " clip-rule="nonzero"/></clipPath><clipPath id="66dc507172"><path d="M 134.621094 0.00390625 L 237.371094 0.00390625 L 237.371094 154.5 L 134.621094 154.5 Z M 134.621094 0.00390625 " clip-rule="nonzero"/></clipPath><clipPath id="b9edae2244"><path d="M 186.078125 0.00390625 C 157.660156 0.00390625 134.621094 34.59375 134.621094 77.261719 C 134.621094 119.929688 157.660156 154.519531 186.078125 154.519531 C 214.496094 154.519531 237.535156 119.929688 237.535156 77.261719 C 237.535156 34.59375 214.496094 0.00390625 186.078125 0.00390625 Z M 186.078125 0.00390625 " clip-rule="nonzero"/></clipPath><clipPath id="0635116f3c"><path d="M 136.039062 220.46875 L 238.960938 220.46875 L 238.960938 375 L 136.039062 375 Z M 136.039062 220.46875 " clip-rule="nonzero"/></clipPath><clipPath id="91573e6adc"><path d="M 187.5 220.46875 C 159.078125 220.46875 136.039062 255.0625 136.039062 297.734375 C 136.039062 340.40625 159.078125 375 187.5 375 C 215.921875 375 238.960938 340.40625 238.960938 297.734375 C 238.960938 255.0625 215.921875 220.46875 187.5 220.46875 Z M 187.5 220.46875 " clip-rule="nonzero"/></clipPath><clipPath id="983e97f4c7"><path d="M 136.039062 220.472656 L 238.789062 220.472656 L 238.789062 374.96875 L 136.039062 374.96875 Z M 136.039062 220.472656 " clip-rule="nonzero"/></clipPath><clipPath id="9002097992"><path d="M 187.496094 220.472656 C 159.074219 220.472656 136.039062 255.0625 136.039062 297.730469 C 136.039062 340.398438 159.074219 374.988281 187.496094 374.988281 C 215.914062 374.988281 238.953125 340.398438 238.953125 297.730469 C 238.953125 255.0625 215.914062 220.472656 187.496094 220.472656 Z M 187.496094 220.472656 " clip-rule="nonzero"/></clipPath><clipPath id="4fd80bf458"><path d="M 0 136.328125 L 154.523438 136.328125 L 154.523438 239.253906 L 0 239.253906 Z M 0 136.328125 " clip-rule="nonzero"/></clipPath><clipPath id="f5d087bae7"><path d="M 154.523438 187.789062 C 154.523438 159.367188 119.929688 136.328125 77.257812 136.328125 C 34.582031 136.328125 -0.0078125 159.367188 -0.0078125 187.789062 C -0.0078125 216.210938 34.582031 239.253906 77.257812 239.253906 C 119.929688 239.253906 154.523438 216.210938 154.523438 187.789062 Z M 154.523438 187.789062 " clip-rule="nonzero"/></clipPath><clipPath id="577966b3f7"><path d="M 0.0234375 136.328125 L 154.515625 136.328125 L 154.515625 239.078125 L 0.0234375 239.078125 Z M 0.0234375 136.328125 " clip-rule="nonzero"/></clipPath><clipPath id="23fd3773b4"><path d="M 154.515625 187.785156 C 154.515625 159.367188 119.929688 136.328125 77.261719 136.328125 C 34.59375 136.328125 0.00390625 159.367188 0.00390625 187.785156 C 0.00390625 216.203125 34.59375 239.242188 77.261719 239.242188 C 119.929688 239.242188 154.515625 216.203125 154.515625 187.785156 Z M 154.515625 187.785156 " clip-rule="nonzero"/></clipPath><clipPath id="e64dedd348"><path d="M 220.199219 136.328125 L 374.992188 136.328125 L 374.992188 239.253906 L 220.199219 239.253906 Z M 220.199219 136.328125 " clip-rule="nonzero"/></clipPath><clipPath id="e441291509"><path d="M 374.992188 187.789062 C 374.992188 159.367188 340.398438 136.328125 297.726562 136.328125 C 255.050781 136.328125 220.460938 159.367188 220.460938 187.789062 C 220.460938 216.210938 255.050781 239.253906 297.726562 239.253906 C 340.398438 239.253906 374.992188 216.210938 374.992188 187.789062 Z M 374.992188 187.789062 " clip-rule="nonzero"/></clipPath><clipPath id="fccc4d8594"><path d="M 220.492188 136.328125 L 374.984375 136.328125 L 374.984375 239.078125 L 220.492188 239.078125 Z M 220.492188 136.328125 " clip-rule="nonzero"/></clipPath><clipPath id="db53076f41"><path d="M 374.984375 187.785156 C 374.984375 159.367188 340.398438 136.328125 297.730469 136.328125 C 255.0625 136.328125 220.472656 159.367188 220.472656 187.785156 C 220.472656 216.203125 255.0625 239.242188 297.730469 239.242188 C 340.398438 239.242188 374.984375 216.203125 374.984375 187.785156 Z M 374.984375 187.785156 " clip-rule="nonzero"/></clipPath><clipPath id="9260108eb2"><path d="M 39 46 L 167 46 L 167 183 L 39 183 Z M 39 46 " clip-rule="nonzero"/></clipPath><clipPath id="3423f06709"><path d="M 192.121094 140.851562 L 113.273438 207.011719 L 13.777344 88.433594 L 92.621094 22.277344 Z M 192.121094 140.851562 " clip-rule="nonzero"/></clipPath><clipPath id="ba5ac79bfa"><path d="M 152.695312 173.929688 C 174.46875 155.660156 169.882812 114.351562 142.453125 81.664062 C 115.023438 48.972656 75.140625 37.285156 53.367188 55.554688 C 31.59375 73.824219 36.179688 115.132812 63.609375 147.820312 C 91.039062 180.511719 130.925781 192.199219 152.695312 173.929688 Z M 152.695312 173.929688 " clip-rule="nonzero"/></clipPath><clipPath id="9c3361487a"><path d="M 39 46 L 167 46 L 167 183 L 39 183 Z M 39 46 " clip-rule="nonzero"/></clipPath><clipPath id="f39ed99848"><path d="M 192.121094 140.851562 L 113.410156 206.898438 L 14.097656 88.542969 L 92.808594 22.5 Z M 192.121094 140.851562 " clip-rule="nonzero"/></clipPath><clipPath id="b214b79fd2"><path d="M 192.117188 140.847656 L 112.589844 207.578125 L 13.269531 89.214844 L 92.796875 22.484375 Z M 192.117188 140.847656 " clip-rule="nonzero"/></clipPath><clipPath id="ccbb5c94f2"><path d="M 152.699219 173.925781 C 174.46875 155.65625 169.882812 114.351562 142.457031 81.664062 C 115.03125 48.980469 75.148438 37.292969 53.378906 55.558594 C 31.609375 73.828125 36.195312 115.132812 63.621094 147.816406 C 91.046875 180.503906 130.929688 192.191406 152.699219 173.925781 Z M 152.699219 173.925781 " clip-rule="nonzero"/></clipPath><clipPath id="7af7db6847"><path d="M 195 46 L 323 46 L 323 183 L 195 183 Z M 195 46 " clip-rule="nonzero"/></clipPath><clipPath id="d3f93851a0"><path d="M 248.875 207.003906 L 170.03125 140.84375 L 269.527344 22.269531 L 348.375 88.429688 Z M 248.875 207.003906 " clip-rule="nonzero"/></clipPath><clipPath id="e41eef9a06"><path d="M 209.453125 173.925781 C 231.226562 192.195312 271.113281 180.503906 298.542969 147.816406 C 325.972656 115.125 330.558594 73.816406 308.785156 55.546875 C 287.011719 37.277344 247.125 48.96875 219.695312 81.65625 C 192.265625 114.34375 187.679688 155.65625 209.453125 173.925781 Z M 209.453125 173.925781 " clip-rule="nonzero"/></clipPath><clipPath id="52ff53618e"><path d="M 195 46 L 323 46 L 323 183 L 195 183 Z M 195 46 " clip-rule="nonzero"/></clipPath><clipPath id="c13c22e86b"><path d="M 248.875 207.003906 L 170.164062 140.957031 L 269.476562 22.605469 L 348.1875 88.648438 Z M 248.875 207.003906 " clip-rule="nonzero"/></clipPath><clipPath id="d6cb683ddf"><path d="M 248.878906 207 L 169.351562 140.269531 L 268.671875 21.90625 L 348.199219 88.636719 Z M 248.878906 207 " clip-rule="nonzero"/></clipPath><clipPath id="7d12d67085"><path d="M 209.460938 173.925781 C 231.230469 192.191406 271.113281 180.503906 298.539062 147.816406 C 325.964844 115.132812 330.550781 73.828125 308.78125 55.558594 C 287.011719 37.292969 247.128906 48.980469 219.703125 81.667969 C 192.277344 114.351562 187.691406 155.65625 209.460938 173.925781 Z M 209.460938 173.925781 " clip-rule="nonzero"/></clipPath><clipPath id="6f4eb8eadd"><path d="M 49 202 L 177 202 L 177 339 L 49 339 Z M 49 202 " clip-rule="nonzero"/></clipPath><clipPath id="873db64c82"><path d="M 102.792969 362.546875 L 23.945312 296.386719 L 123.441406 177.808594 L 202.289062 243.96875 Z M 102.792969 362.546875 " clip-rule="nonzero"/></clipPath><clipPath id="c4d9205f6f"><path d="M 63.367188 329.464844 C 85.140625 347.734375 125.027344 336.046875 152.457031 303.355469 C 179.886719 270.667969 184.472656 229.355469 162.699219 211.089844 C 140.925781 192.820312 101.039062 204.507812 73.613281 237.199219 C 46.183594 269.886719 41.597656 311.195312 63.367188 329.464844 Z M 63.367188 329.464844 " clip-rule="nonzero"/></clipPath><clipPath id="c2e58e581b"><path d="M 49 202 L 177 202 L 177 339 L 49 339 Z M 49 202 " clip-rule="nonzero"/></clipPath><clipPath id="e14718c948"><path d="M 102.792969 362.546875 L 24.082031 296.5 L 123.390625 178.144531 L 202.101562 244.191406 Z M 102.792969 362.546875 " clip-rule="nonzero"/></clipPath><clipPath id="1241aff87a"><path d="M 102.792969 362.542969 L 23.269531 295.8125 L 122.585938 177.445312 L 202.113281 244.175781 Z M 102.792969 362.542969 " clip-rule="nonzero"/></clipPath><clipPath id="0775609e85"><path d="M 63.375 329.464844 C 85.144531 347.734375 125.027344 336.042969 152.453125 303.359375 C 179.878906 270.671875 184.464844 229.367188 162.695312 211.101562 C 140.925781 192.832031 101.042969 204.523438 73.617188 237.207031 C 46.191406 269.894531 41.605469 311.199219 63.375 329.464844 Z M 63.375 329.464844 " clip-rule="nonzero"/></clipPath><clipPath id="5f70d04131"><path d="M 195 202 L 323 202 L 323 339 L 195 339 Z M 195 202 " clip-rule="nonzero"/></clipPath><clipPath id="67963aae29"><path d="M 170.039062 244.171875 L 248.882812 178.015625 L 348.382812 296.589844 L 269.535156 362.75 Z M 170.039062 244.171875 " clip-rule="nonzero"/></clipPath><clipPath id="fef3b54e3e"><path d="M 209.460938 211.09375 C 187.691406 229.363281 192.273438 270.671875 219.703125 303.363281 C 247.132812 336.050781 287.019531 347.742188 308.792969 329.472656 C 330.566406 311.203125 325.980469 269.890625 298.550781 237.203125 C 271.121094 204.515625 231.234375 192.824219 209.460938 211.09375 Z M 209.460938 211.09375 " clip-rule="nonzero"/></clipPath><clipPath id="d5e48b1af3"><path d="M 195 202 L 323 202 L 323 339 L 195 339 Z M 195 202 " clip-rule="nonzero"/></clipPath><clipPath id="ba7a2fbd8d"><path d="M 170.039062 244.171875 L 248.75 178.125 L 348.0625 296.480469 L 269.351562 362.527344 Z M 170.039062 244.171875 " clip-rule="nonzero"/></clipPath><clipPath id="a7e759333d"><path d="M 170.042969 244.175781 L 249.570312 177.445312 L 348.890625 295.8125 L 269.363281 362.542969 Z M 170.042969 244.175781 " clip-rule="nonzero"/></clipPath><clipPath id="9519adc3a4"><path d="M 209.460938 211.101562 C 187.691406 229.367188 192.277344 270.671875 219.703125 303.359375 C 247.128906 336.042969 287.011719 347.734375 308.78125 329.464844 C 330.550781 311.199219 325.964844 269.894531 298.539062 237.207031 C 271.113281 204.523438 231.230469 192.832031 209.460938 211.101562 Z M 209.460938 211.101562 " clip-rule="nonzero"/></clipPath><clipPath id="290e03a493"><path d="M 129.972656 130.261719 L 245.027344 130.261719 L 245.027344 245.3125 L 129.972656 245.3125 Z M 129.972656 130.261719 " clip-rule="nonzero"/></clipPath><clipPath id="b03b667386"><path d="M 187.5 130.261719 C 155.730469 130.261719 129.972656 156.019531 129.972656 187.789062 C 129.972656 219.558594 155.730469 245.3125 187.5 245.3125 C 219.269531 245.3125 245.027344 219.558594 245.027344 187.789062 C 245.027344 156.019531 219.269531 130.261719 187.5 130.261719 Z M 187.5 130.261719 " clip-rule="nonzero"/></clipPath><clipPath id="503a338190"><path d="M 129.972656 130.261719 L 244.722656 130.261719 L 244.722656 245.011719 L 129.972656 245.011719 Z M 129.972656 130.261719 " clip-rule="nonzero"/></clipPath><clipPath id="2a2fba9cce"><path d="M 187.496094 130.261719 C 155.726562 130.261719 129.972656 156.015625 129.972656 187.785156 C 129.972656 219.550781 155.726562 245.304688 187.496094 245.304688 C 219.265625 245.304688 245.015625 219.550781 245.015625 187.785156 C 245.015625 156.015625 219.265625 130.261719 187.496094 130.261719 Z M 187.496094 130.261719 " clip-rule="nonzero"/></clipPath></defs><g clip-path="url(#5e7463b2db)"><g clip-path="url(#5e6224562a)"><path fill="#a0ff89" d="M 134.621094 0 L 237.546875 0 L 237.546875 154.386719 L 134.621094 154.386719 Z M 134.621094 0 " fill-opacity="1" fill-rule="nonzero"/></g></g><g clip-path="url(#66dc507172)"><g clip-path="url(#b9edae2244)"><path stroke-linecap="butt" transform="matrix(0.75, 0, 0, 0.75, 134.621276, 0.00450369)" fill="none" stroke-linejoin="miter" d="M 68.609141 -0.000796583 C 30.718511 -0.000796583 -0.000242547 46.119001 -0.000242547 103.009633 C -0.000242547 159.900266 30.718511 206.020063 68.609141 206.020063 C 106.499771 206.020063 137.218525 159.900266 137.218525 103.009633 C 137.218525 46.119001 106.499771 -0.000796583 68.609141 -0.000796583 Z M 68.609141 -0.000796583 " stroke="#595959" stroke-width="8" stroke-opacity="1" stroke-miterlimit="4"/></g></g><g clip-path="url(#0635116f3c)"><g clip-path="url(#91573e6adc)"><path fill="#a0ff89" d="M 136.039062 220.46875 L 238.960938 220.46875 L 238.960938 374.855469 L 136.039062 374.855469 Z M 136.039062 220.46875 " fill-opacity="1" fill-rule="nonzero"/></g></g><g clip-path="url(#983e97f4c7)"><g clip-path="url(#9002097992)"><path stroke-linecap="butt" transform="matrix(0.75, 0, 0, 0.75, 136.037441, 220.473427)" fill="none" stroke-linejoin="miter" d="M 68.611546 -0.00102783 C 30.715707 -0.00102783 0.00216178 46.11877 0.00216178 103.009402 C 0.00216178 159.900035 30.715707 206.019832 68.611546 206.019832 C 106.502176 206.019832 137.22093 159.900035 137.22093 103.009402 C 137.22093 46.11877 106.502176 -0.00102783 68.611546 -0.00102783 Z M 68.611546 -0.00102783 " stroke="#595959" stroke-width="8" stroke-opacity="1" stroke-miterlimit="4"/></g></g><g clip-path="url(#4fd80bf458)"><g clip-path="url(#f5d087bae7)"><path fill="#a0ff89" d="M 154.523438 136.328125 L 154.523438 239.253906 L 0.132812 239.253906 L 0.132812 136.328125 Z M 154.523438 136.328125 " fill-opacity="1" fill-rule="nonzero"/></g></g><g clip-path="url(#577966b3f7)"><g clip-path="url(#23fd3773b4)"><path stroke-linecap="butt" transform="matrix(0, 0.75, -0.75, 0, 154.517193, 136.327316)" fill="none" stroke-linejoin="miter" d="M 68.610463 0.00209034 C 30.719833 0.00209034 0.00107887 46.11668 0.00107887 103.007312 C 0.00107887 159.897944 30.719833 206.017742 68.610463 206.017742 C 106.501093 206.017742 137.219847 159.897944 137.219847 103.007312 C 137.219847 46.11668 106.501093 0.00209034 68.610463 0.00209034 Z M 68.610463 0.00209034 " stroke="#595959" stroke-width="8" stroke-opacity="1" stroke-miterlimit="4"/></g></g><g clip-path="url(#e64dedd348)"><g clip-path="url(#e441291509)"><path fill="#a0ff89" d="M 374.992188 136.328125 L 374.992188 239.253906 L 220.601562 239.253906 L 220.601562 136.328125 Z M 374.992188 136.328125 " fill-opacity="1" fill-rule="nonzero"/></g></g><g clip-path="url(#fccc4d8594)"><g clip-path="url(#db53076f41)"><path stroke-linecap="butt" transform="matrix(0, 0.75, -0.75, 0, 374.986151, 136.327316)" fill="none" stroke-linejoin="miter" d="M 68.610463 0.0023681 C 30.719833 0.0023681 0.00107887 46.116957 0.00107887 103.00759 C 0.00107887 159.898222 30.719833 206.01802 68.610463 206.01802 C 106.501093 206.01802 137.219847 159.898222 137.219847 103.00759 C 137.219847 46.116957 106.501093 0.0023681 68.610463 0.0023681 Z M 68.610463 0.0023681 " stroke="#595959" stroke-width="8" stroke-opacity="1" stroke-miterlimit="4"/></g></g><g clip-path="url(#9260108eb2)"><g clip-path="url(#3423f06709)"><g clip-path="url(#ba5ac79bfa)"><path fill="#7ed957" d="M 192.121094 140.851562 L 113.273438 207.011719 L 14.035156 88.742188 L 92.882812 22.585938 Z M 192.121094 140.851562 " fill-opacity="1" fill-rule="nonzero"/></g></g></g><g clip-path="url(#9c3361487a)"><g clip-path="url(#f39ed99848)"><g clip-path="url(#b214b79fd2)"><g clip-path="url(#ccbb5c94f2)"><path stroke-linecap="butt" transform="matrix(-0.574533, 0.482091, -0.482091, -0.574533, 192.116872, 140.848467)" fill="none" stroke-linejoin="miter" d="M 68.609818 -0.00201986 C 30.716675 0.000764765 0.000528726 46.119447 -0.00180709 103.011489 C -0.000795053 159.899541 30.718442 206.018638 68.608238 206.019844 C 106.501382 206.017059 137.217528 159.898377 137.216516 103.010325 C 137.218852 46.118282 106.499614 -0.00081468 68.609818 -0.00201986 Z M 68.609818 -0.00201986 " stroke="#595959" stroke-width="8" stroke-opacity="1" stroke-miterlimit="4"/></g></g></g></g><g clip-path="url(#7af7db6847)"><g clip-path="url(#d3f93851a0)"><g clip-path="url(#e41eef9a06)"><path fill="#7ed957" d="M 248.875 207.003906 L 170.03125 140.84375 L 269.269531 22.578125 L 348.113281 88.734375 Z M 248.875 207.003906 " fill-opacity="1" fill-rule="nonzero"/></g></g></g><g clip-path="url(#52ff53618e)"><g clip-path="url(#c13c22e86b)"><g clip-path="url(#d6cb683ddf)"><g clip-path="url(#7d12d67085)"><path stroke-linecap="butt" transform="matrix(-0.574533, -0.482091, 0.482091, -0.574533, 248.879081, 207.000397)" fill="none" stroke-linejoin="miter" d="M 68.608006 -0.00115705 C 30.71821 0.0000481391 -0.00102721 46.119145 0.00130861 103.011187 C 0.000296574 159.89924 30.716443 206.017922 68.609586 206.020706 C 106.499382 206.019501 137.218619 159.900404 137.216284 103.008362 C 137.217296 46.12031 106.50115 0.00162758 68.608006 -0.00115705 Z M 68.608006 -0.00115705 " stroke="#595959" stroke-width="8" stroke-opacity="1" stroke-miterlimit="4"/></g></g></g></g><g clip-path="url(#6f4eb8eadd)"><g clip-path="url(#873db64c82)"><g clip-path="url(#c4d9205f6f)"><path fill="#7ed957" d="M 102.792969 362.546875 L 23.945312 296.386719 L 123.183594 178.117188 L 202.03125 244.277344 Z M 102.792969 362.546875 " fill-opacity="1" fill-rule="nonzero"/></g></g></g><g clip-path="url(#c2e58e581b)"><g clip-path="url(#e14718c948)"><g clip-path="url(#1241aff87a)"><g clip-path="url(#0775609e85)"><path stroke-linecap="butt" transform="matrix(-0.574533, -0.482091, 0.482091, -0.574533, 102.794309, 362.541715)" fill="none" stroke-linejoin="miter" d="M 68.61113 0.000148418 C 30.717986 -0.00263621 0.0020968 46.120451 0.00108476 103.008503 C 0.00342058 159.900545 30.719567 206.019227 68.609362 206.018022 C 106.502506 206.020807 137.218396 159.89772 137.219408 103.009668 C 137.217072 46.117626 106.500926 -0.00105677 68.61113 0.000148418 Z M 68.61113 0.000148418 " stroke="#595959" stroke-width="8" stroke-opacity="1" stroke-miterlimit="4"/></g></g></g></g><g clip-path="url(#5f70d04131)"><g clip-path="url(#67963aae29)"><g clip-path="url(#fef3b54e3e)"><path fill="#7ed957" d="M 170.039062 244.171875 L 248.882812 178.015625 L 348.125 296.28125 L 269.277344 362.441406 Z M 170.039062 244.171875 " fill-opacity="1" fill-rule="nonzero"/></g></g></g><g clip-path="url(#d5e48b1af3)"><g clip-path="url(#ba7a2fbd8d)"><g clip-path="url(#a7e759333d)"><g clip-path="url(#9519adc3a4)"><path stroke-linecap="butt" transform="matrix(0.574533, -0.482091, 0.482091, 0.574533, 170.042353, 244.176723)" fill="none" stroke-linejoin="miter" d="M 68.608924 0.000978671 C 30.719128 -0.000226514 0.0029824 46.118456 0.000646585 103.010498 C 0.00165862 159.89855 30.717548 206.021637 68.610692 206.018852 C 106.500488 206.020058 137.216634 159.901375 137.21897 103.009333 C 137.217957 46.121281 106.502068 -0.00180596 68.608924 0.000978671 Z M 68.608924 0.000978671 " stroke="#595959" stroke-width="8" stroke-opacity="1" stroke-miterlimit="4"/></g></g></g></g><g clip-path="url(#290e03a493)"><g clip-path="url(#b03b667386)"><path fill="#ffde59" d="M 129.972656 130.261719 L 245.027344 130.261719 L 245.027344 245.3125 L 129.972656 245.3125 Z M 129.972656 130.261719 " fill-opacity="1" fill-rule="nonzero"/></g></g><g clip-path="url(#503a338190)"><g clip-path="url(#2a2fba9cce)"><path stroke-linecap="butt" transform="matrix(0.75, 0, 0, 0.75, 129.974557, 130.262804)" fill="none" stroke-linejoin="miter" d="M 76.695388 -0.00144733 C 34.33601 -0.00144733 -0.00253402 34.337097 -0.00253402 76.696474 C -0.00253402 119.050644 34.33601 153.389188 76.695388 153.389188 C 119.054765 153.389188 153.388101 119.050644 153.388101 76.696474 C 153.388101 34.337097 119.054765 -0.00144733 76.695388 -0.00144733 Z M 76.695388 -0.00144733 " stroke="#595959" stroke-width="8" stroke-opacity="1" stroke-miterlimit="4"/></g></g></svg>